<svg xmlns="http://www.w3.org/2000/svg" width="17" height="17" viewBox="0 0 17 17" fill="none">
<path fill-rule="evenodd" clip-rule="evenodd" d="M1.70017 7.6493C1.70017 4.36288 4.36434 1.6987 7.65076 1.6987C10.9372 1.6987 13.6014 4.36288 13.6014 7.6493C13.6014 9.25018 12.9692 10.7034 11.9409 11.773C11.9094 11.7967 11.8792 11.8229 11.8505 11.8515C11.822 11.8801 11.7959 11.9102 11.7723 11.9415C10.7029 12.9686 9.25056 13.5999 7.65076 13.5999C4.36434 13.5999 1.70017 10.9357 1.70017 7.6493ZM12.4249 13.6281C11.1163 14.6744 9.45658 15.3001 7.65076 15.3001C3.42536 15.3001 0 11.8747 0 7.6493C0 3.4239 3.42536 -0.00146484 7.65076 -0.00146484C11.8762 -0.00146484 15.3015 3.4239 15.3015 7.6493C15.3015 9.45637 14.675 11.1171 13.6274 12.4262L16.7506 15.5494C17.0826 15.8814 17.0826 16.4196 16.7506 16.7516C16.4186 17.0836 15.8804 17.0836 15.5484 16.7516L12.4249 13.6281Z" fill="#272727"/>
</svg>